<svg width="102" height="281" viewBox="0 0 102 281" fill="none" xmlns="http://www.w3.org/2000/svg">
<path d="M34.3334 38.1238L51.0001 0.5L67.6668 38.1238H34.3334Z" fill="#F1F1F1"/>
<path d="M51.2287 0.601255C51.0763 0.533752 50.9239 0.466248 50.7715 0.398745C49.991 2.16082 49.2104 3.92289 48.4298 5.68497C43.6548 16.4641 38.8798 27.2433 34.1049 38.0225C34.0232 38.2068 34.1319 38.3738 34.3334 38.3738C45.4445 38.3738 56.5557 38.3738 67.6668 38.3738C67.8684 38.3738 67.977 38.2068 67.8953 38.0225C63.1204 27.2433 58.3454 16.4642 53.5704 5.68496C52.7898 3.92289 52.0092 2.16082 51.2287 0.398745C51.0763 0.466248 50.9239 0.533752 50.7715 0.601255C51.5521 2.36333 52.3327 4.1254 53.1132 5.88748C57.8882 16.6667 62.6632 27.4458 67.4382 38.225L67.6668 37.8738C56.5557 37.8738 45.4445 37.8738 34.3334 37.8738L34.562 38.225C39.337 27.4458 44.112 16.6667 48.887 5.88748C49.6675 4.1254 50.4481 2.36333 51.2287 0.601255ZM50.7715 0.398745L51.2287 0.601255H50.7715L51.2287 0.398745C51.1297 0.175384 50.8705 0.175384 50.7715 0.398745Z" fill="#B3B3B3"/>
<path d="M1 103.47V280.5H101V103.47L71.8333 38.1238H30.1667L1 103.47Z" stroke="#B3B3B3" stroke-width="0.5" stroke-linecap="round" stroke-linejoin="round"/>
<path d="M101 125.252H1" stroke="#B3B3B3" stroke-width="0.5" stroke-linecap="round" stroke-linejoin="round"/>
</svg>
